<?xml version="1.0" encoding="UTF-8"?>
<svg version="1.1" viewBox="0 0 2000 2000" width="1280" height="1280" xmlns="http://www.w3.org/2000/svg">
<path transform="translate(1292,1236)" d="m0 0 43 3 33 2 30 1 1 4-10 19-12 21-17 25-9 12-13 16-11 12-9 10-13 13-8 7-15 13-16 13-19 14-20 13-20 12-22 12-27 13-27 11-33 11-37 10-27 5-35 5-13 1-39 1-30-1-27-3-36-6-32-8-25-8-21-8-21-9-16-8-25-13-22-14-20-14-18-14-14-12-8-7-10-9-27-27-7-8-11-13-12-15-13-18-12-17-14-23-11-19-1-3h112l5 8 12 17 10 13 13 15 12 13 15 15 8 7 16 13 18 13 21 13 22 12 19 9 25 10 24 8 32 8 31 5 34 3h34l27-2 32-5 25-6 24-7 22-8 29-13 22-12 24-15 16-12 10-8 13-11 12-11 16-16 7-8 11-13 8-11 10-14z" fill="#FEFEFE"/>
<path transform="translate(1273,449)" d="m0 0h15l10 3 11 7 10 10 10 13 13 20 11 19 12 23 12 27 9 25 8 26 6 26-1 1-70 1h-27l-3-8-11-33-9-21-8-16v-2l-5 3-14 15-16 16-7 8-30 30-6 7h-2l-2 4-59 59-8 7-29 29h-2v2l-8 7-19 19-8 7-28 28-8 7-27 27h-2l-2 4h-2l-1 3-8 7-9 9-14 10-10 5-10 2-12-1-11-4-12-8-13-12-10-9-15-15-8-7-33-33-7-6v-2l-4-2-41-41-8-7-8-8-7-10-4-8-2-9v-8l3-13 5-12 9-12 9-6 8-3 5-1h11l13 3 12 6 9 7 10 9 26 26 7 8 25 25 7 8 30 30 4 2 22-22 7-8 37-37 1-2h2l2-4 33-33 6-7h2l2-4 6-5 2-3h2l2-4 8-7 21-21h2v-2l8-7 27-27 7-6 30-30 8-7 21-21 8-7 33-33h2v-2l8-7 10-8 16-8z" fill="#FEFEFE"/>
<path transform="translate(410,888)" d="m0 0h25l17 2 16 5 13 8 7 6 9 14 5 17 1 9v26l-1 1h-62l-1-2v-25l-3-9-5-5-3-1h-9l-6 3-4 8-1 6v13l2 10 6 9 10 9 19 13 16 11 13 10 12 11 8 9 8 14 4 11 2 10 1 12v15l-2 18-5 15-7 13-9 10-11 7-11 5-19 5-13 1h-25l-19-3-15-5-12-7-9-8-7-11-6-14-2-10-1-21v-13h65l1 1 1 28 3 10 6 5 5 2h10l8-4 4-7 1-4v-25l-3-10-6-9-8-8-17-13-20-14-16-13-11-10-8-11-5-10-4-14-1-7v-23l3-17 5-13 6-10 9-10 11-7 16-6z" fill="#FEFEFE"/>
<path transform="translate(540,952)" d="m0 0h65l2 1 1 167 3 7 5 4 5 2h9l8-4 4-6 2-13 1-157h67l1 223-6 2-59-1-1-1-1-14-4 2-10 9-11 5-13 3h-28l-15-5-10-7-6-7-6-13-3-14z" fill="#FEFEFE"/>
<path transform="translate(1200,949)" d="m0 0h17l18 2 15 4 15 8 10 9 8 11 6 14 3 18v64l-103 1v33l2 13 4 6 5 3 2 1h11l6-3h2l4-10 1-12 1-5h64l1 4-2 19-5 16-7 11-9 9-11 7-14 5-19 4h-37l-20-4-13-5-11-7-7-7-6-10-5-13-3-14-1-13v-77l1-20 4-15 7-14 7-9 7-7 13-8 14-5 13-3zm1 44-6 4-4 6-2 9v28h39v-30l-3-9-5-6-4-2z" fill="#FEFEFE"/>
<path transform="translate(1389,949)" d="m0 0h18l19 2 16 5 11 6 8 7 7 10 5 13 2 11 1 20-2 1h-60l-1-18-3-9-5-4-9-1-8 4-3 7v7l3 7 6 7 17 10 16 8 16 10 12 9 10 9 7 10 5 11 2 8v29l-3 12-7 14-9 10-8 6-11 5-14 4-12 2h-38l-22-5-16-8-10-9-7-11-4-11-2-13-1-17 1-2h64l1 18 3 9 5 4 3 1h11l5-3 3-7v-14l-4-8-7-7-21-13-20-11-12-8-10-9-5-5-7-10-5-14-1-6v-18l3-14 7-14 9-10 8-6 10-5 14-4z" fill="#FEFEFE"/>
<path transform="translate(1575,949)" d="m0 0h18l19 2 15 4 13 7 9 8 7 11 4 12 2 13v17l-1 1h-60l-1-1v-13l-2-11-4-5-6-2-9 1-5 5-2 4v10l5 8 8 7 23 12 19 11 15 11 9 8 9 13 4 10 2 8v26l-4 16-6 12-9 10-10 7-12 5-17 4-7 1h-37l-19-4-12-5-10-6-8-8-6-10-5-15-2-25v-4l65 1v11l2 13 5 6 4 2h11l6-4 3-8v-10l-4-10-10-9-15-9-23-13-12-8-13-11-6-8-5-10-3-9-1-6v-20l4-15 5-10 7-9 13-9 11-5 17-4z" fill="#FEFEFE"/>
<path transform="translate(817,949)" d="m0 0h18l18 2 15 4 15 8 9 8 8 14 3 9 2 11 1 24-1 1h-63l-1-1-1-21-3-9-4-4-3-1h-9l-6 3-3 3-1 4-1 18v96l2 11 5 5 5 2h9l5-3 3-6 1-5 1-23 1-1h62l1 1v12l-2 20-4 13-6 12-7 8-11 7-12 5-16 4-6 1h-36l-16-3-13-5-10-6-8-7-7-11-5-14-3-17v-107l3-16 5-12 7-10 8-8 13-8 15-5 11-2z" fill="#FEFEFE"/>
<path transform="translate(1008,949)" d="m0 0h16l19 2 14 4 16 8 6 5 8 11 5 12 2 7 1 9v22l-1 1h-62l-1-1-1-22-3-9-4-3-3-1h-9l-6 3-3 4-2 9v111l3 10 5 4 4 1h8l7-4 3-9 1-24 1-1h62l1 4-1 23-4 17-6 12-9 10-8 6-13 6-18 4-6 1h-36l-22-5-14-7-10-9-8-13-5-15-2-13v-108l2-13 5-13 7-11 8-8 10-7 12-5 11-3z" fill="#FEFEFE"/>
</svg>
